# xmcd
#
# Track frame offsets:
#	150
#	29174
#	51872
#	74671
#	105267
#	136112
#	157598
#	180130
#
# Disc length: 2832 seconds
#
# Revision: 1
# Processed by: cddbd v1.5.2PL0 Copyright (c) Steve Scherf et al.
# Submitted via: audiograbber 1.83.01
#
DISCID=5d0b0e08
DTITLE=Interstate Blues - Redemption
DYEAR=2007
DGENRE=Blues/Rock
TTITLE0=Twilight
TTITLE1=Fate
TTITLE2=Hear
TTITLE3=I Know
TTITLE4=Nineteen Eight Nine
TTITLE5=Underground
TTITLE6=Who We Are
TTITLE7=Redemption
EXTD=
EXTT0=
EXTT1=
EXTT2=
EXTT3=
EXTT4=
EXTT5=
EXTT6=
EXTT7=
PLAYORDER=
